# xmcd CD database file
#
# Track frame offsets:
#	150
#	17300
#	38893
#	55843
#	71653
#	86325
#	107651
#	126201
#	145759
#	166094
#	186361
#	205895
#	225845
#	240024
#
# Disc length: 3423 seconds
#
# Revision: 0
# Processed by: cddbd v1.5.2PL0 Copyright (c) Steve Scherf et al.
# Submitted via: CDex 1.81
#
DISCID=a50d5d0e
DTITLE=texas Gun - Love Me
DYEAR=1900
DGENRE=Country
TTITLE0=As She Walks Away
TTITLE1=Everything That Glitters
TTITLE2=Knee Deep
TTITLE3=Let's Call It A Night
TTITLE4=Chicken Fried
TTITLE5=Love Me
TTITLE6=Past The Point Of Rescue
TTITLE7=the Night They Drove Old Dixe Down
TTITLE8=Wagon Wheel
TTITLE9=Sweet Annie
TTITLE10=To Make You Feel My Love
TTITLE11=Who Wouldn't Wanna Be Me
TTITLE12=Somebody Else's Moon
TTITLE13=The World
EXTD=
EXTT0=
EXTT1=
EXTT2=
EXTT3=
EXTT4=
EXTT5=
EXTT6=
EXTT7=
EXTT8=
EXTT9=
EXTT10=
EXTT11=
EXTT12=
EXTT13=
PLAYORDER=
